<svg width="512" height="512" viewBox="0 0 512 512" fill="none" xmlns="http://www.w3.org/2000/svg">
<rect width="512" height="512" rx="104.523" fill="url(#paint0_linear_1611_58)"/>
<rect width="512" height="512" rx="104.523" fill="url(#paint1_linear_1611_58)"/>
<rect width="512" height="512" rx="104.523" fill="url(#paint2_linear_1611_58)"/>
<path d="M383.362 229.924L297.137 144.812C280.586 128.477 258.134 119.298 234.727 119.298C199.126 119.298 170.267 147.782 170.267 182.923C170.267 201.542 177.759 219.399 191.101 232.565L255.987 296.611C265.461 305.96 270.783 318.643 270.783 331.865C270.783 351.001 255.067 366.512 235.681 366.512C221.419 366.512 207.737 360.94 197.627 351.018L85.6094 241.142V138.036C85.6094 109.08 109.084 85.6055 138.04 85.6055H352.867C393.478 85.6055 426.398 118.1 426.398 158.182C426.398 198.265 383.362 229.924 383.362 229.924ZM85.6094 373.964C85.6094 402.92 109.084 426.394 138.04 426.394H342.133C388.486 426.394 426.058 389.305 426.058 343.554C426.058 325.686 418.867 308.55 406.065 295.912L265.677 157.342C258.287 150.049 248.268 145.954 237.817 145.954C216.194 145.954 198.666 163.254 198.666 184.599C198.666 194.425 202.619 203.848 209.662 210.8L282.693 282.888C294.61 294.651 301.306 310.6 301.306 327.236C301.306 364.638 270.59 394.957 232.694 394.957C210.781 394.957 189.772 386.363 174.277 371.073L85.6094 283.553V373.964Z" fill="white"/>
<defs>
<linearGradient id="paint0_linear_1611_58" x1="-0.408295" y1="-0.408295" x2="512.408" y2="512.408" gradientUnits="userSpaceOnUse">
<stop stop-color="#4ADE80"/>
<stop offset="1" stop-color="#34D399"/>
</linearGradient>
<linearGradient id="paint1_linear_1611_58" x1="18.5344" y1="27.6053" x2="470.519" y2="479.59" gradientUnits="userSpaceOnUse">
<stop stop-color="#FC00FF"/>
<stop offset="1" stop-color="#00DBDE"/>
</linearGradient>
<linearGradient id="paint2_linear_1611_58" x1="18.5344" y1="27.6053" x2="470.519" y2="479.59" gradientUnits="userSpaceOnUse">
<stop stop-color="#9333EA"/>
<stop offset="1" stop-color="#2563EB"/>
</linearGradient>
</defs>
</svg>
